<svg xmlns="http://www.w3.org/2000/svg" width="1015.7009" height="223.24123" x="0px" y="0px" viewBox="0 0 1015.7009 223.24123"><path fill="none" d="M-7.564-6.024h1032.418v240.062H-7.564z" style="fill:#050611;fill-opacity:0"/><defs><linearGradient id="a" x1="0" x2="1" y1="0" y2="0" gradientTransform="scale(-26.96245 26.96245)rotate(-43.479 3.59 7.448)" gradientUnits="userSpaceOnUse" spreadMethod="pad"><stop offset="0" style="stop-opacity:1;stop-color:#d0000f"/><stop offset="0.263962" style="stop-opacity:1;stop-color:#d0000f"/><stop offset="0.37047214" style="stop-opacity:1;stop-color:#d0000f"/><stop offset="0.958601" style="stop-opacity:1;stop-color:#004877"/><stop offset="1" style="stop-opacity:1;stop-color:#004877"/></linearGradient><linearGradient id="b" x1="0" x2="1" y1="0" y2="0" gradientTransform="matrix(19.2627 0 0 -19.2627 96.185 114.855)" gradientUnits="userSpaceOnUse" spreadMethod="pad"><stop offset="0" style="stop-opacity:1;stop-color:#181c62"/><stop offset="0.13409" style="stop-opacity:1;stop-color:#181c62"/><stop offset="0.83289" style="stop-opacity:1;stop-color:#0051a4"/><stop offset="1" style="stop-opacity:1;stop-color:#0051a4"/></linearGradient><linearGradient id="c" x1="0" x2="1" y1="0" y2="0" gradientTransform="scale(-20.93388 20.93388)rotate(-32.834 5.76 12.735)" gradientUnits="userSpaceOnUse" spreadMethod="pad"><stop offset="0" style="stop-opacity:1;stop-color:#181c62"/><stop offset="0.103939" style="stop-opacity:1;stop-color:#181c62"/><stop offset="0.808267" style="stop-opacity:1;stop-color:#0051a4"/><stop offset="1" style="stop-opacity:1;stop-color:#0051a4"/></linearGradient><clipPath id="d" clipPathUnits="userSpaceOnUse"><path d="M0 226.772h340.157V0H0Z"/></clipPath></defs><path d="M247.462 106.34H125.248v.479h122.214z" style="fill:#004877;fill-opacity:1;fill-rule:nonzero;stroke:none" transform="matrix(6.5628 0 0 -6.5628 -608.34 855.749)"/><path d="M0 0h.632v-2.514h.063L2.957 0h.828L1.657-2.297l2.128-2.787h-.772L1.264-2.732l-.632-.717v-1.635H0Z" style="fill:#004877;fill-opacity:1;fill-rule:nonzero;stroke:none" transform="matrix(6.5628 0 0 -6.5628 213.635 179.96)"/><path d="M0 0c.769 0 1.124.671 1.124 1.433 0 .758-.355 1.44-1.124 1.44-.776 0-1.134-.682-1.138-1.44C-1.134.671-.776 0 0 0m-1.742 1.433c0 1.19.703 1.973 1.742 1.973 1.036 0 1.731-.783 1.728-1.973C1.731.25 1.036-.537 0-.534-1.039-.537-1.742.25-1.742 1.433" style="fill:#004877;fill-opacity:1;fill-rule:nonzero;stroke:none" transform="matrix(6.5628 0 0 -6.5628 249.906 210.336)"/><path d="M0 0h.583v-.582h.042c.137.385.534.642.983.646.091-.004.246-.008.316-.014v-.612a2 2 0 0 1-.365.042c-.548 0-.955-.379-.955-.891v-2.402H0Z" style="fill:#004877;fill-opacity:1;fill-rule:nonzero;stroke:none" transform="matrix(6.5628 0 0 -6.5628 265.509 188.305)"/><path d="M0 0c-.003.635-.404 1.11-1.032 1.11-.66 0-1.078-.52-1.12-1.11Zm-2.76-.345c0 1.174.692 1.988 1.728 1.988.8 0 1.647-.491 1.643-1.903v-.253h-2.767c.032-.807.502-1.25 1.18-1.25.456 0 .744.2.885.435h.646C.376-1.907-.19-2.3-.976-2.297-2.079-2.3-2.76-1.514-2.76-.345" style="fill:#004877;fill-opacity:1;fill-rule:nonzero;stroke:none" transform="matrix(6.5628 0 0 -6.5628 297.172 198.764)"/><path d="M0 0c.681-.004 1.06.453 1.06.934v.383C.881 1.306.281 1.26.098 1.25c-.547-.036-.895-.228-.899-.646C-.797.2-.464-.004 0 0m.028 1.756c.246.017.86.052 1.032.056v.309c0 .484-.288.765-.863.765-.482 0-.773-.221-.857-.512h-.632c.077.614.674 1.039 1.517 1.039.498 0 1.436-.148 1.432-1.348V-.449H1.06V.07h-.028C.906-.186.558-.537-.105-.541c-.724.004-1.3.429-1.3 1.173 0 .874.773 1.074 1.433 1.124" style="fill:#004877;fill-opacity:1;fill-rule:nonzero;stroke:none" transform="matrix(6.5628 0 0 -6.5628 313.42 210.378)"/><path d="M0 0h.632v-4.523h2.36v-.561H0Z" style="fill:#004877;fill-opacity:1;fill-rule:nonzero;stroke:none" transform="matrix(6.5628 0 0 -6.5628 341.122 179.96)"/><path d="M0 0c.811 0 1.127.457 1.131 1.061-.004.607-.32 1.053-1.138 1.053h-1.067V0Zm-1.707 2.676H.021c1.191 0 1.735-.71 1.735-1.615 0-.903-.544-1.623-1.728-1.623h-1.102v-1.846h-.633z" style="fill:#004877;fill-opacity:1;fill-rule:nonzero;stroke:none" transform="matrix(6.5628 0 0 -6.5628 376.54 197.523)"/><path d="M0 0c-.899 0-1.611-.71-1.615-2.023.004-1.31.716-2.019 1.657-2.022.857.003 1.451.572 1.461 1.475H.176v.554h1.945v-.548c0-1.26-.867-2.071-2.079-2.071-1.359 0-2.271 1.004-2.268 2.612C-2.229-.415-1.306.59 0 .59c1.074 0 1.903-.674 2.093-1.657H1.44C1.222-.415.727 0 0 0" style="fill:#004877;fill-opacity:1;fill-rule:nonzero;stroke:none" transform="matrix(6.5628 0 0 -6.5628 406.245 183.37)"/><path d="M0 0c.811 0 1.127.457 1.131 1.061-.004.607-.32 1.053-1.138 1.053h-1.067V0Zm-1.707 2.676H.021c1.19 0 1.735-.71 1.735-1.615 0-.903-.545-1.623-1.728-1.623h-1.102v-1.846h-.633z" style="fill:#004877;fill-opacity:1;fill-rule:nonzero;stroke:none" transform="matrix(6.5628 0 0 -6.5628 447.544 197.523)"/><path d="M0 0h.583v-.582h.042c.137.385.534.642.983.646.091-.004.246-.008.316-.014v-.612a2 2 0 0 1-.365.042c-.548 0-.955-.379-.955-.891v-2.402H0Z" style="fill:#004877;fill-opacity:1;fill-rule:nonzero;stroke:none" transform="matrix(6.5628 0 0 -6.5628 463.422 188.305)"/><path d="M0 0c.769 0 1.124.671 1.124 1.433 0 .758-.355 1.44-1.124 1.44-.776 0-1.134-.682-1.138-1.44C-1.134.671-.776 0 0 0m-1.742 1.433c0 1.19.703 1.973 1.742 1.973 1.036 0 1.731-.783 1.728-1.973C1.731.25 1.036-.537 0-.534-1.039-.537-1.742.25-1.742 1.433" style="fill:#004877;fill-opacity:1;fill-rule:nonzero;stroke:none" transform="matrix(6.5628 0 0 -6.5628 488.402 210.336)"/><path d="M0 0a.414.414 0 0 0 .428-.4A.42.42 0 0 0 0-.801c-.232 0-.425.18-.421.401A.404.404 0 0 0 0 0m.309-1.433V-5.52c0-.712-.369-1.155-1.11-1.158a1 1 0 0 1-.126 0v.562a.6.6 0 0 1 .119 0c.352-.004.509.214.513.596v4.087z" style="fill:#004877;fill-opacity:1;fill-rule:nonzero;stroke:none" transform="matrix(6.5628 0 0 -6.5628 505.94 178.903)"/><path d="M0 0c-.003.635-.404 1.11-1.032 1.11-.66 0-1.078-.52-1.12-1.11Zm-2.76-.345c0 1.174.692 1.988 1.728 1.988.8 0 1.647-.491 1.643-1.903v-.253h-2.767c.032-.807.502-1.25 1.18-1.25.456 0 .744.2.885.435h.646C.376-1.907-.19-2.3-.976-2.297-2.079-2.3-2.76-1.514-2.76-.345" style="fill:#004877;fill-opacity:1;fill-rule:nonzero;stroke:none" transform="matrix(6.5628 0 0 -6.5628 530.25 198.764)"/><path d="M0 0c0 1.159.692 1.974 1.728 1.974.811 0 1.422-.481 1.516-1.202h-.603c-.088.348-.39.668-.899.668C1.06 1.44.608.878.604.022c.004-.882.446-1.447 1.138-1.447.449 0 .793.242.899.66h.603c-.094-.682-.656-1.205-1.502-1.201C.66-1.97 0-1.144 0 0" style="fill:#004877;fill-opacity:1;fill-rule:nonzero;stroke:none" transform="matrix(6.5628 0 0 -6.5628 537.28 200.934)"/><path d="M0 0h-.801v-2.212c-.003-.488.243-.569.499-.569.109 0 .271.011.358.014v-.562a3 3 0 0 0-.421-.028c-.509 0-1.043.317-1.047.991V0h-.575v.506h.575v.913h.611V.506H0Z" style="fill:#004877;fill-opacity:1;fill-rule:nonzero;stroke:none" transform="matrix(6.5628 0 0 -6.5628 573.439 191.624)"/><path d="m0 0 1.714-4.186h.063L3.49 0h.759v-5.084h-.597v3.841h-.049l-1.58-3.841h-.562l-1.58 3.841h-.043v-3.841h-.596V0Z" style="fill:#004877;fill-opacity:1;fill-rule:nonzero;stroke:none" transform="matrix(6.5628 0 0 -6.5628 593.997 179.96)"/><path d="M0 0c.681-.004 1.06.453 1.06.934v.383C.882 1.306.281 1.26.098 1.25c-.547-.036-.895-.228-.899-.646C-.797.2-.464-.004 0 0m.028 1.756c.246.017.861.052 1.032.056v.309c0 .484-.288.765-.863.765-.481 0-.773-.221-.857-.512h-.632c.077.614.674 1.039 1.517 1.039.498 0 1.436-.148 1.432-1.348V-.449H1.06V.07h-.028C.906-.186.559-.537-.105-.541c-.724.004-1.3.429-1.3 1.173 0 .874.773 1.074 1.433 1.124" style="fill:#004877;fill-opacity:1;fill-rule:nonzero;stroke:none" transform="matrix(6.5628 0 0 -6.5628 635.82 210.378)"/><path d="M0 0h-.604v3.813h.583v-.597h.049c.179.39.538.646 1.117.646.772 0 1.289-.471 1.285-1.44V0h-.604v2.38c0 .59-.323.941-.864.941C.407 3.321 0 2.95 0 2.289Z" style="fill:#004877;fill-opacity:1;fill-rule:nonzero;stroke:none" transform="matrix(6.5628 0 0 -6.5628 656.078 213.328)"/><path d="M0 0c.681-.004 1.06.453 1.06.934v.383C.882 1.306.281 1.26.098 1.25c-.547-.036-.895-.228-.899-.646C-.797.2-.463-.004 0 0m.028 1.756c.246.017.861.052 1.032.056v.309c0 .484-.287.765-.863.765-.481 0-.773-.221-.857-.512h-.632c.077.614.674 1.039 1.517 1.039.498 0 1.436-.148 1.432-1.348V-.449H1.06V.07h-.028C.906-.186.559-.537-.105-.541c-.724.004-1.3.429-1.3 1.173 0 .874.773 1.074 1.433 1.124" style="fill:#004877;fill-opacity:1;fill-rule:nonzero;stroke:none" transform="matrix(6.5628 0 0 -6.5628 685.461 210.378)"/><path d="M0 0c.699 0 1.085.502 1.089 1.342C1.085 2.16.709 2.725 0 2.725c-.734 0-1.096-.614-1.096-1.383C-1.096.552-.723 0 0 0m-1.594-.997h.632c.08-.39.442-.583.983-.583.653 0 1.053.285 1.053.913v.773h-.049C.895-.105.653-.537-.084-.54c-.927.003-1.623.702-1.623 1.902 0 1.174.671 1.904 1.63 1.904.74 0 .979-.449 1.116-.654h.05v.604h.589V-.702C1.675-1.685.951-2.107.021-2.107c-.924 0-1.549.404-1.615 1.11" style="fill:#004877;fill-opacity:1;fill-rule:nonzero;stroke:none" transform="matrix(6.5628 0 0 -6.5628 711.756 209.413)"/><path d="M0 0c-.004.635-.404 1.11-1.032 1.11-.66 0-1.079-.52-1.121-1.11Zm-2.76-.345c0 1.174.692 1.988 1.728 1.988.8 0 1.646-.491 1.643-1.903v-.253h-2.767c.031-.807.502-1.25 1.18-1.25.456 0 .744.2.885.435h.646C.375-1.907-.19-2.3-.976-2.297-2.079-2.3-2.76-1.514-2.76-.345" style="fill:#004877;fill-opacity:1;fill-rule:nonzero;stroke:none" transform="matrix(6.5628 0 0 -6.5628 745.057 198.764)"/><path d="M0 0h.583v-.596h.049c.158.407.527.646 1.025.646.499 0 .84-.239 1.019-.646h.042c.193.393.597.646 1.144.646.678 0 1.166-.415 1.166-1.314v-2.549h-.604v2.542c-.003.562-.354.779-.772.779-.53 0-.832-.357-.836-.842v-2.479h-.611v2.605c.004.429-.305.716-.744.716-.457 0-.857-.385-.857-.941v-2.38H0Z" style="fill:#004877;fill-opacity:1;fill-rule:nonzero;stroke:none" transform="matrix(6.5628 0 0 -6.5628 753.282 188.305)"/><path d="M0 0c-.003.635-.404 1.11-1.032 1.11-.66 0-1.078-.52-1.12-1.11Zm-2.76-.345c0 1.174.692 1.988 1.728 1.988.8 0 1.647-.491 1.643-1.903v-.253h-2.767c.032-.807.502-1.25 1.18-1.25.456 0 .744.2.885.435h.646C.376-1.907-.19-2.3-.976-2.297-2.079-2.3-2.76-1.514-2.76-.345" style="fill:#004877;fill-opacity:1;fill-rule:nonzero;stroke:none" transform="matrix(6.5628 0 0 -6.5628 808.613 198.764)"/><path d="M0 0h-.604v3.813h.583v-.597h.049c.179.39.538.646 1.117.646.772 0 1.289-.471 1.285-1.44V0h-.604v2.38c0 .59-.323.941-.864.941C.407 3.321 0 2.95 0 2.289Z" style="fill:#004877;fill-opacity:1;fill-rule:nonzero;stroke:none" transform="matrix(6.5628 0 0 -6.5628 820.805 213.328)"/><path d="M0 0h-.801v-2.212c-.003-.488.243-.569.499-.569.109 0 .27.011.358.014v-.562a3 3 0 0 0-.421-.028c-.51 0-1.043.317-1.047.991V0h-.575v.506h.575v.913h.611V.506H0Z" style="fill:#004877;fill-opacity:1;fill-rule:nonzero;stroke:none" transform="matrix(6.5628 0 0 -6.5628 853.091 191.624)"/><path d="M0 0c-.674 0-1.113-.351-1.117-.836.004-.534.597-.734.984-.829l.505-.14c.545-.141 1.44-.453 1.44-1.405 0-.829-.667-1.471-1.847-1.475-1.096.004-1.773.57-1.833 1.412h.646c.052-.569.583-.839 1.187-.836.702-.003 1.229.359 1.229.913 0 .496-.471.685-1.004.836l-.625.169c-.797.231-1.296.639-1.293 1.327C-1.731-.004-.965.562.021.562S1.717-.014 1.742-.787h-.618C1.071-.288.608 0 0 0" style="fill:#004877;fill-opacity:1;fill-rule:nonzero;stroke:none" transform="matrix(6.5628 0 0 -6.5628 879.503 183.186)"/><path d="M0 0c-.004.635-.404 1.11-1.032 1.11-.66 0-1.079-.52-1.121-1.11Zm-2.76-.345c0 1.174.692 1.988 1.728 1.988.8 0 1.646-.491 1.643-1.903v-.253h-2.767c.031-.807.502-1.25 1.18-1.25.456 0 .744.2.885.435h.646C.375-1.907-.19-2.3-.976-2.297-2.079-2.3-2.76-1.514-2.76-.345" style="fill:#004877;fill-opacity:1;fill-rule:nonzero;stroke:none" transform="matrix(6.5628 0 0 -6.5628 912.803 198.764)"/><path d="M0 0h.583v-.582h.042c.137.385.534.642.983.646.091-.004.246-.008.316-.014v-.612a2 2 0 0 1-.365.042c-.548 0-.955-.379-.955-.891v-2.402H0Z" style="fill:#004877;fill-opacity:1;fill-rule:nonzero;stroke:none" transform="matrix(6.5628 0 0 -6.5628 921.032 188.305)"/><path d="M0 0h-.625L-2.03 3.813h.661L-.33.787h.042L.751 3.813h.661z" style="fill:#004877;fill-opacity:1;fill-rule:nonzero;stroke:none" transform="matrix(6.5628 0 0 -6.5628 948.707 213.328)"/><path d="M239.188 101.701h.604v-3.813h-.604zm.302 1.433a.416.416 0 0 0 .429-.4.42.42 0 0 0-.429-.401c-.231 0-.425.18-.421.401-.004.225.19.404.421.4" style="fill:#004877;fill-opacity:1;fill-rule:nonzero;stroke:none" transform="matrix(6.5628 0 0 -6.5628 -608.34 855.749)"/><path d="M0 0c0 1.159.692 1.974 1.728 1.974.81 0 1.422-.481 1.516-1.202h-.603c-.088.348-.39.668-.899.668C1.06 1.44.608.878.604.022c.004-.882.446-1.447 1.138-1.447.449 0 .793.242.899.66h.603c-.094-.682-.656-1.205-1.502-1.201C.66-1.97 0-1.144 0 0" style="fill:#004877;fill-opacity:1;fill-rule:nonzero;stroke:none" transform="matrix(6.5628 0 0 -6.5628 969.541 200.934)"/><path d="M0 0c-.004.635-.404 1.11-1.032 1.11-.66 0-1.079-.52-1.121-1.11Zm-2.76-.345c0 1.174.692 1.988 1.728 1.988.8 0 1.646-.491 1.643-1.903v-.253h-2.767c.031-.807.502-1.25 1.18-1.25.456 0 .744.2.885.435h.646C.375-1.907-.19-2.3-.976-2.297-2.079-2.3-2.76-1.514-2.76-.345" style="fill:#004877;fill-opacity:1;fill-rule:nonzero;stroke:none" transform="matrix(6.5628 0 0 -6.5628 1011.69 198.764)"/><path d="M0 0h1.891v-1.38H0v-4.487h-1.666V4.261H0Zm-6.662-3.001c1.027-.008 1.725.458 1.725 1.275 0 .826-.698 1.306-1.725 1.306S-8.38-.9-8.373-1.726c-.007-.817.683-1.283 1.711-1.275m-2.026-2.071h1.666v-2.595H.54v-1.351h-9.228zM-6.662.87c1.958 0 3.308-1.035 3.316-2.596-.008-1.553-1.358-2.565-3.316-2.565-1.973 0-3.331 1.012-3.331 2.565C-9.993-.165-8.635.87-6.662.87m-4.021 1.891h3.196v1.515h1.665V2.761h3.181V1.425h-8.042z" style="fill:#004877;fill-opacity:1;fill-rule:nonzero;stroke:none" transform="matrix(6.5628 0 0 -6.5628 283.989 73.138)"/><path d="M0 0c.007-1.005.007-2.176-.293-3.691h1.808v-1.351h-5.386v-2.115H.03v-4.757h-1.666v3.421h-7.982v1.336h4.081v2.115h-5.341v1.351h8.912c.27 1.395.3 2.453.3 3.391h-7.682v1.335H0Z" style="fill:#004877;fill-opacity:1;fill-rule:nonzero;stroke:none" transform="matrix(6.5628 0 0 -6.5628 373.328 55.905)"/><path d="M0 0h1.951v-9.213h4.801v-1.65H0Z" style="fill:#004877;fill-opacity:1;fill-rule:nonzero;stroke:none" transform="matrix(6.5628 0 0 -6.5628 393.775 54.034)"/><path d="M0 0c1.47.008 2.131.833 2.131 1.981 0 1.162-.661 1.965-2.131 1.965h-1.831V0Zm-3.781 5.582H.3c2.491 0 3.819-1.516 3.826-3.601C4.119-.098 2.776-1.606.27-1.606h-2.101v-3.676h-1.95z" style="fill:#004877;fill-opacity:1;fill-rule:nonzero;stroke:none" transform="matrix(6.5628 0 0 -6.5628 474.153 90.666)"/><path d="M0 0c-1.748 0-3.023-1.365-3.016-3.811-.007-2.468 1.245-3.841 3.061-3.841 1.643 0 2.686.99 2.716 2.535H.24v1.546h4.411v-1.306c0-2.798-1.92-4.531-4.606-4.531-3.001 0-5.034 2.138-5.027 5.582-.007 3.489 2.124 5.582 4.967 5.582 2.393 0 4.246-1.486 4.576-3.617H2.566C2.213-.705 1.32 0 0 0" style="fill:#004877;fill-opacity:1;fill-rule:nonzero;stroke:none" transform="matrix(6.5628 0 0 -6.5628 543.5 64.57)"/><path d="M0 0h1.666v-5.312h2.085v-1.425H1.666v-6.827H0Zm-.81-9.138-1.021-1.335c-1.47.743-2.528 2.175-3.106 3.901-.592-1.846-1.702-3.376-3.256-4.156l-1.02 1.335c2.183 1.035 3.429 3.631 3.436 6.137v2.161h1.666v-2.161c-.015-2.423 1.2-4.869 3.301-5.882" style="fill:#004877;fill-opacity:1;fill-rule:nonzero;stroke:none" transform="matrix(6.5628 0 0 -6.5628 644.905 45.073)"/><path d="M205.13 112.888h-5.627v-1.41h5.627zm-7.277 2.73h1.651v-1.44h5.626v1.44h1.666v-5.491h-8.943zm1.351 2.326c1.14-.007 1.958.713 1.965 1.801-.007 1.087-.825 1.793-1.965 1.785-1.171.008-1.996-.698-1.996-1.785 0-1.088.825-1.808 1.996-1.801m3.473 2.491h2.453v3.091h1.666v-7.277h-1.666v2.836h-2.438c-.322-1.524-1.718-2.551-3.488-2.551-2.078 0-3.587 1.335-3.587 3.211 0 1.853 1.509 3.188 3.587 3.181 1.755.007 3.136-1.005 3.473-2.491" style="fill:#004877;fill-opacity:1;fill-rule:nonzero;stroke:none" transform="matrix(6.5628 0 0 -6.5628 -608.34 855.749)"/><path d="M0 0h1.711v-4.231h1.756v-1.396H1.711v-4.531H0Zm-7.232-9.258h1.68v-2.686h7.698v-1.35h-9.378zm5.702 7.442c-.015-.922-.015-2.273-.331-3.991l-1.65.15c.27 1.396.323 2.439.338 3.271h-5.275v1.381h6.918zm-5.072-5.041v2.761h1.65v-2.709c1.404.06 2.844.166 4.157.353l.09-1.2c-2.821-.511-6.024-.563-8.403-.571l-.15 1.336c.803.008 1.703.015 2.656.03" style="fill:#004877;fill-opacity:1;fill-rule:nonzero;stroke:none" transform="matrix(6.5628 0 0 -6.5628 822.205 45.073)"/><path d="M233.602 109.947h-1.651v13.579h1.651zm-10.564 12.394h6.392v-5.087h-4.666v-2.731c2.138.015 3.976.127 6.092.48l.15-1.365c-2.303-.398-4.329-.488-6.767-.48h-1.186v5.416h4.682v2.416h-4.697z" style="fill:#004877;fill-opacity:1;fill-rule:nonzero;stroke:none" transform="matrix(6.5628 0 0 -6.5628 -608.34 855.749)"/><path d="M0 0h-1.681v1.185h-2.655v1.171h2.655v7.907H0Zm-7.007 6.197c1.035.007 1.778.435 1.785 1.17-.007.736-.75 1.178-1.785 1.171-1.088.007-1.816-.435-1.816-1.171 0-.735.728-1.163 1.816-1.17M-9.633.99h1.665v-2.656H.315v-1.35h-9.948zm2.626 8.778c1.973.007 3.361-.967 3.376-2.401-.015-1.455-1.403-2.378-3.376-2.385-2.011.007-3.391.93-3.391 2.385 0 1.434 1.38 2.408 3.391 2.401m4.321-5.192.09-1.2a37 37 0 0 0-3.421-.39V.375h-1.665v2.521a84 84 0 0 0-3.542-.06l-.21 1.335c2.499.015 5.867.038 8.748.405" style="fill:#004877;fill-opacity:1;fill-rule:nonzero;stroke:none" transform="matrix(6.5628 0 0 -6.5628 1013.39 112.528)"/><path d="M105.151 129.32a9 9 0 0 0-.309-1.138 11 11 0 0 0-1.027-2.141c-.838-1.368-1.913-2.578-3.058-3.696-2.264-2.209-4.831-4.204-6.423-6.938-1.806-3.105-2.143-7.024-.892-10.392s4.063-6.118 7.458-7.29a12.34 12.34 0 0 0-4.607 7.341 12.34 12.34 0 0 0 1.424 8.55c1.571 2.694 4.091 4.67 6.329 6.841 2.24 2.17 4.413 4.962 4.688 8.067 0 0-.608.63-1.582 1.152a9 9 0 0 1-1.797.718z" style="fill:url(#a);stroke:none" transform="matrix(6.5628 0 0 -6.5628 -608.34 855.749)"/><path d="M109.327 125.312c-.881-2.131-2.362-3.891-3.997-5.49-2.29-2.238-4.876-4.279-6.446-7.07a12 12 0 0 1-1.108-2.695.5.5 0 0 1-.014-.12c.004-.108.032-.245.037-.313.051-.805.152-1.607.324-2.394.386-1.751 1.229-3.591 3-4.292.446 3.428 2.271 6.726 5.156 8.628 1.071.705 2.265 1.215 3.31 1.957 3.429 2.44 4.643 7.16 2.995 11-.575 1.338-1.52 2.381-2.555 3.38-.198-.868-.36-1.766-.702-2.591" style="fill:url(#b);stroke:none" transform="matrix(6.5628 0 0 -6.5628 -608.34 855.749)"/><path d="M112.546 105.865c-2.57-2.418-6.209-3.657-9.72-3.307-.581.057-1.162.166-1.703.38-1.771.701-2.614 2.541-3 4.292a16 16 0 0 0-.324 2.394c-.005.068-.033.205-.037.313a.3.3 0 0 0 .014.12c-.331-.666-.375-1.679-.422-2.416a12 12 0 0 1 .107-2.504 13 13 0 0 1 1.618-4.613c.784-1.352 1.832-2.6 3.215-3.327 1.153-.606 2.479-.819 3.781-.819a12.5 12.5 0 0 1 6.551 1.857c2.772 1.717 4.811 4.581 5.521 7.763a12.343 12.343 0 0 1-1.713 9.369c.137-3.526-1.319-7.083-3.888-9.502" style="fill:url(#c);stroke:none" transform="matrix(6.5628 0 0 -6.5628 -608.34 855.749)"/><g clip-path="url(#d)" transform="matrix(6.5628 0 0 -6.5628 -608.34 855.749)"><path d="M0 0s1.969 5.155 5.595 6.983c5.8 2.923 6.073 6.49 6.4 8.238-.229-1.223.519-8.021-4.077-11.871C4.114.164 0 0 0 0" style="fill:#95c61b;fill-opacity:1;fill-rule:nonzero;stroke:none" transform="translate(102.298 103.77)"/></g></svg>